<?xml version="1.0" encoding="utf-8"?>
<!-- Generator: Adobe Illustrator 19.0.0, SVG Export Plug-In . SVG Version: 6.00 Build 0)  -->
<svg version="1.1" id="Layer_1" xmlns="http://www.w3.org/2000/svg" xmlns:xlink="http://www.w3.org/1999/xlink" x="0px" y="0px"
	 viewBox="0 0 215.1 88.8" style="enable-background:new 0 0 215.1 88.8;" xml:space="preserve">
<style type="text/css">
	.st0{fill-rule:evenodd;clip-rule:evenodd;fill:#FFD30E;}
	.st1{fill:#80BD26;}
</style>
<g id="XMLID_13_">
	<polygon id="XMLID_62_" class="st0" points="1.2,48.3 21.2,68.3 1.2,88.3 	"/>
	<g id="XMLID_4_">
		<g id="XMLID_318_">
			<path id="XMLID_342_" class="st1" d="M0,12.4c0-4.1,1.4-7.2,4.3-9.3S10.6,0,14.8,0c3.8,0,7.4,0.9,10.8,2.7v9
				c-3.2-1.9-6.3-2.9-9.3-2.9c-1.6,0-3,0.3-4.2,0.8c-1.2,0.5-1.8,1.4-1.8,2.6c0,0.8,0.4,1.4,1.3,1.9c0.9,0.5,2,0.9,3.4,1.2
				s2.9,0.7,4.4,1.3s3.1,1.3,4.4,2.2s2.5,2.2,3.4,3.9c0.9,1.8,1.3,3.9,1.3,6.5c0,3.5-1.4,6.3-4.2,8.5c-2.8,2.2-6.2,3.3-10.2,3.3
				c-5.5,0-10.1-1.3-13.9-3.8v-9.6C4.2,30.5,8.3,32,12.7,32c0,0,0,0,0.1,0c1.5,0,2.8-0.3,3.9-0.9s1.7-1.4,1.7-2.5
				c0-0.7-0.3-1.3-1-1.9c-0.7-0.5-1.6-0.9-2.7-1.2l-3.6-0.9c-1.3-0.3-2.6-0.8-3.9-1.3c-1.3-0.6-2.5-1.3-3.6-2.1s-2-2-2.6-3.5
				S0,14.4,0,12.4z"/>
			<path id="XMLID_340_" class="st1" d="M32.2,9.2V0.4h33.5v8.8H54v31.2H43.7V9.2H32.2z"/>
			<path id="XMLID_337_" class="st1" d="M71.6,40.4v-40h15.8c4.9,0,8.8,1.1,11.7,3.4c2.9,2.3,4.4,5.5,4.4,9.6c0,3.2-0.7,5.8-2.2,7.9
				c-1.5,2.1-3.4,3.5-5.8,4.3l9.7,14.9H93.6l-7.4-13.3h-4.3v13.3H71.6z M81.9,19.2H88c1.4,0,2.6-0.5,3.6-1.5c1-1,1.5-2.2,1.5-3.8
				c0-1.6-0.5-2.8-1.5-3.8c-1-1-2.2-1.5-3.6-1.5h-6.1V19.2z"/>
			<path id="XMLID_335_" class="st1" d="M111.9,40.4v-40h27.9v8.4h-17.6v7.4h15.3v8.4h-15.3V32h17.6v8.4H111.9z"/>
			<path id="XMLID_333_" class="st1" d="M147.4,40.4v-40h27.9v8.4h-17.6v7.4H173v8.4h-15.3V32h17.6v8.4H147.4z"/>
			<path id="XMLID_331_" class="st1" d="M181.7,9.2V0.4h33.5v8.8h-11.6v31.2h-10.3V9.2H181.7z"/>
			<path id="XMLID_329_" class="st1" d="M28.5,60.4c0-4.1,1.4-7.2,4.3-9.3C35.7,49,39.2,48,43.4,48c3.8,0,7.4,0.9,10.8,2.7v9
				c-3.2-1.9-6.3-2.9-9.3-2.9c-1.6,0-3,0.3-4.2,0.8s-1.8,1.4-1.8,2.6c0,0.8,0.4,1.4,1.3,1.9s2,0.9,3.4,1.2s2.9,0.7,4.4,1.3
				c1.6,0.6,3.1,1.3,4.4,2.2c1.4,0.8,2.5,2.2,3.4,3.9s1.3,3.9,1.3,6.5c0,3.5-1.4,6.3-4.2,8.5s-6.2,3.3-10.2,3.3
				c-5.5,0-10.1-1.3-13.9-3.8v-9.6c3.7,3.1,7.8,4.6,12.3,4.6c0,0,0,0,0.1,0c1.5,0,2.8-0.3,3.9-0.9c1.1-0.6,1.7-1.4,1.7-2.5
				c0-0.7-0.3-1.3-1-1.9c-0.7-0.5-1.6-0.9-2.7-1.2l-3.6-0.9c-1.3-0.3-2.6-0.8-3.9-1.3c-1.3-0.6-2.5-1.3-3.6-2.1
				c-1.1-0.8-2-2-2.6-3.5C28.9,64.2,28.5,62.4,28.5,60.4z"/>
			<path id="XMLID_327_" class="st1" d="M62.6,88.4v-40h10.1L82.2,62l9.4-13.6h10.1v40H91.4V63.6l-9.2,13.3l-9.3-13.3v24.8H62.6z"/>
			<path id="XMLID_324_" class="st1" d="M104.6,88.4l15.9-40h9.7l15.9,40H135l-3.1-9.6h-13.1l-3.1,9.6H104.6z M121.3,71.1h8.1
				l-4-12.4L121.3,71.1z"/>
			<path id="XMLID_321_" class="st1" d="M148.7,88.4v-40h15.8c4.9,0,8.8,1.1,11.7,3.4s4.4,5.5,4.4,9.6c0,3.2-0.7,5.8-2.2,7.9
				c-1.5,2.1-3.4,3.5-5.8,4.3l9.7,14.9h-11.5l-7.4-13.3H159v13.3H148.7z M159,67.2h6.1c1.4,0,2.6-0.5,3.6-1.5s1.5-2.2,1.5-3.8
				c0-1.6-0.5-2.8-1.5-3.8s-2.2-1.5-3.6-1.5H159V67.2z"/>
			<path id="XMLID_319_" class="st1" d="M181.7,57.2v-8.8h33.5v8.8h-11.6v31.2h-10.3V57.2H181.7z"/>
		</g>
	</g>
</g>
</svg>
